<svg width="31" height="30" viewBox="0 0 31 30" fill="none" xmlns="http://www.w3.org/2000/svg">
<mask id="mask0_712_14183" style="mask-type:alpha" maskUnits="userSpaceOnUse" x="0" y="0" width="31" height="30">
<rect x="0.970459" width="30" height="30" fill="#D9D9D9"/>
</mask>
<g mask="url(#mask0_712_14183)">
<path d="M8.28296 21.375C9.34546 20.5625 10.533 19.9217 11.8455 19.4525C13.158 18.9842 14.533 18.75 15.9705 18.75C17.408 18.75 18.783 18.9842 20.0955 19.4525C21.408 19.9217 22.5955 20.5625 23.658 21.375C24.3871 20.5208 24.955 19.5521 25.3617 18.4688C25.7675 17.3854 25.9705 16.2292 25.9705 15C25.9705 12.2292 24.9967 9.86958 23.0492 7.92125C21.1009 5.97375 18.7413 5 15.9705 5C13.1996 5 10.8405 5.97375 8.89296 7.92125C6.94463 9.86958 5.97046 12.2292 5.97046 15C5.97046 16.2292 6.17379 17.3854 6.58046 18.4688C6.98629 19.5521 7.55379 20.5208 8.28296 21.375ZM15.9705 16.25C14.7413 16.25 13.7046 15.8283 12.8605 14.985C12.0171 14.1408 11.5955 13.1042 11.5955 11.875C11.5955 10.6458 12.0171 9.60917 12.8605 8.765C13.7046 7.92167 14.7413 7.5 15.9705 7.5C17.1996 7.5 18.2363 7.92167 19.0805 8.765C19.9238 9.60917 20.3455 10.6458 20.3455 11.875C20.3455 13.1042 19.9238 14.1408 19.0805 14.985C18.2363 15.8283 17.1996 16.25 15.9705 16.25ZM15.9705 27.5C14.2413 27.5 12.6163 27.1717 11.0955 26.515C9.57463 25.8592 8.25171 24.9688 7.12671 23.8438C6.00171 22.7188 5.11129 21.3958 4.45546 19.875C3.79879 18.3542 3.47046 16.7292 3.47046 15C3.47046 13.2708 3.79879 11.6458 4.45546 10.125C5.11129 8.60417 6.00171 7.28125 7.12671 6.15625C8.25171 5.03125 9.57463 4.14042 11.0955 3.48375C12.6163 2.82792 14.2413 2.5 15.9705 2.5C17.6996 2.5 19.3246 2.82792 20.8455 3.48375C22.3663 4.14042 23.6892 5.03125 24.8142 6.15625C25.9392 7.28125 26.8296 8.60417 27.4855 10.125C28.1421 11.6458 28.4705 13.2708 28.4705 15C28.4705 16.7292 28.1421 18.3542 27.4855 19.875C26.8296 21.3958 25.9392 22.7188 24.8142 23.8438C23.6892 24.9688 22.3663 25.8592 20.8455 26.515C19.3246 27.1717 17.6996 27.5 15.9705 27.5ZM15.9705 25C17.0746 25 18.1163 24.8388 19.0955 24.5163C20.0746 24.1929 20.9705 23.7292 21.783 23.125C20.9705 22.5208 20.0746 22.0571 19.0955 21.7337C18.1163 21.4112 17.0746 21.25 15.9705 21.25C14.8663 21.25 13.8246 21.4112 12.8455 21.7337C11.8663 22.0571 10.9705 22.5208 10.158 23.125C10.9705 23.7292 11.8663 24.1929 12.8455 24.5163C13.8246 24.8388 14.8663 25 15.9705 25ZM15.9705 13.75C16.5121 13.75 16.96 13.5729 17.3142 13.2188C17.6684 12.8646 17.8455 12.4167 17.8455 11.875C17.8455 11.3333 17.6684 10.8854 17.3142 10.5312C16.96 10.1771 16.5121 10 15.9705 10C15.4288 10 14.9809 10.1771 14.6267 10.5312C14.2725 10.8854 14.0955 11.3333 14.0955 11.875C14.0955 12.4167 14.2725 12.8646 14.6267 13.2188C14.9809 13.5729 15.4288 13.75 15.9705 13.75Z" fill="black"/>
</g>
</svg>
