<svg width="31" height="30" viewBox="0 0 31 30" fill="none" xmlns="http://www.w3.org/2000/svg">
<mask id="mask0_712_14176" style="mask-type:alpha" maskUnits="userSpaceOnUse" x="0" y="0" width="31" height="30">
<rect x="0.970459" width="30" height="30" fill="#D9D9D9"/>
</mask>
<g mask="url(#mask0_712_14176)">
<path d="M20.1267 20.3438C19.8975 20.0729 19.783 19.7654 19.783 19.4212C19.783 19.0779 19.8975 18.7917 20.1267 18.5625L22.4392 16.25H13.4705C13.1163 16.25 12.8196 16.13 12.5805 15.89C12.3405 15.6508 12.2205 15.3542 12.2205 15C12.2205 14.6458 12.3405 14.3487 12.5805 14.1087C12.8196 13.8696 13.1163 13.75 13.4705 13.75H22.4392L20.1267 11.4375C19.8767 11.1875 19.7517 10.8908 19.7517 10.5475C19.7517 10.2033 19.8767 9.90625 20.1267 9.65625C20.3559 9.40625 20.6425 9.28125 20.9867 9.28125C21.33 9.28125 21.6163 9.39583 21.8455 9.625L26.3455 14.125C26.4705 14.25 26.5592 14.3854 26.6117 14.5312C26.6634 14.6771 26.6892 14.8333 26.6892 15C26.6892 15.1667 26.6634 15.3229 26.6117 15.4688C26.5592 15.6146 26.4705 15.75 26.3455 15.875L21.8455 20.375C21.5746 20.6458 21.278 20.7654 20.9555 20.7337C20.6321 20.7029 20.3559 20.5729 20.1267 20.3438ZM7.22046 26.25C6.53296 26.25 5.94421 26.0054 5.45421 25.5163C4.96504 25.0263 4.72046 24.4375 4.72046 23.75V6.25C4.72046 5.5625 4.96504 4.97375 5.45421 4.48375C5.94421 3.99458 6.53296 3.75 7.22046 3.75H14.7205C15.0746 3.75 15.3717 3.86958 15.6117 4.10875C15.8509 4.34875 15.9705 4.64583 15.9705 5C15.9705 5.35417 15.8509 5.65083 15.6117 5.89C15.3717 6.13 15.0746 6.25 14.7205 6.25H7.22046V23.75H14.7205C15.0746 23.75 15.3717 23.87 15.6117 24.11C15.8509 24.3492 15.9705 24.6458 15.9705 25C15.9705 25.3542 15.8509 25.6508 15.6117 25.89C15.3717 26.13 15.0746 26.25 14.7205 26.25H7.22046Z" fill="black"/>
</g>
</svg>
